<svg id="Capa_1" data-name="Capa 1" xmlns="http://www.w3.org/2000/svg" viewBox="0 0 1346 493.2"><defs><style>.cls-1{fill:#fff;}</style></defs><path class="cls-1" d="M770.2,320.2c-4.5,1.8-8.1,4.5-12.2,6.3s-8.1,3.8-12.3,5.4a126.65,126.65,0,0,1-12.3,4.1c-4.3,1.2-8.7,2-12.9,3-1.3,1.7-.9,3.5-.9,5.2V409c0,1.6-.2,3.2-.2,4.8-4.4,2.4-8.6,4.8-12.8,7-2.2,1.2-4.6,2.3-6.8,3.7a5,5,0,0,1-5.4.1c-4.7-2.5-9.4-4.7-14.2-7.1l-77.4-38.3-57.2-28.4a49.28,49.28,0,0,0-7.1-3.1c-.9,2-.6,3.7-.6,5.4v48.6c-4.8,2.5-9.6,4.8-14.1,7.5-6.2,3.7-12.8,5.3-19.9,6.3-17.4,2.3-34.8,5.2-52.2,7.8-7,1-13.9,2.1-20.9,3.1H429c-1.5-1.3-1.3-3-1.5-4.6-.7-8.1-1.4-16.2-2.1-24.4-.1-1.1-.3-2.1-.4-3.1-1.6-.6-2.4.4-3.2,1-4.5,3.3-8.9,6.8-13.6,9.9-16.7,10.8-34.9,17.3-55,17.5-24.4.3-45.4-8.1-62.6-25.5A97.17,97.17,0,0,1,279.2,383l-2.7-3.9c-1.1.7-.5,1.5-.4,2.1,2.6,10.2,5.2,20.4,7.9,30.7,3.1,12.1,6.2,24.1,9.4,36.4a16.8,16.8,0,0,1-2.1,1.8c-6,4-11.9,8.1-18,12a22.71,22.71,0,0,1-5.2,2.5c-10.8,3.6-21.6,7.1-32.4,10.6q-26.25,8.55-52.5,16.9c-1.3.4-2.7.7-4.3,1.1-4-8.1-7.3-16.2-10.9-24.2l-10.8-24.6c-3.6-8.2-7.1-16.1-10.6-24.2s-7.1-16.1-10.7-24.1-7.2-16.4-10.8-24.6-7.1-16.1-10.7-24.1-7-16.1-10.5-24.2S96.7,306.8,93,298.6c-3.6-8-6.8-16.1-10.8-24.1-4.3.8-7.7,2.9-11.4,4.4s-7.1,3-10.3,4.4c-1.8-.4-2.2-1.7-2.9-2.8-8.1-13.6-16.1-27.2-24.2-40.9-10.5-17.7-21-35.5-31.6-53.2-.7-1.2-1.4-2.5-2.2-3.9.6-.9,1.3-1.8,2-2.7,4.8-4.9,9.6-9.8,14.5-14.7a22,22,0,0,1,4.1-3.3c11.4-7.2,22.5-14.7,34.3-21.1a360.27,360.27,0,0,1,68.3-29,298.62,298.62,0,0,1,52-10.9,209.09,209.09,0,0,1,53.6.6c7.7,1.1,15.5,2.1,23.1,4.4a113.51,113.51,0,0,1,27.2,11.9c6.6,4,13.1,8,19,13,14.1,12.1,24.8,26.7,31,44.3a81,81,0,0,1,4.6,23.5,97.51,97.51,0,0,1-1.8,25.3,16.35,16.35,0,0,0-.2,2.2c1.5.7,2.3-.3,3.1-.9a107.18,107.18,0,0,1,35.8-15.7,101.42,101.42,0,0,1,34.7-2.3h2.2a34.23,34.23,0,0,0-1-13.5c-3.5-.4-6.8,1.3-10.2,2s-6.5,1.5-9.4,2.2c-1.6-.9-1.4-2.1-1.5-3.2-.7-13.7-1.3-27.5-2-41.2-.2-4.6-.5-9.3-.7-13.9-.1-1.6-.1-3.2-.3-4.8a3.29,3.29,0,0,1,2-3.5l5.1-2.7c2-1.1,4-2,5.9-3.2a96.9,96.9,0,0,1,20.7-8.8c30.2-9.5,60.3-19.2,90.5-28.8,5.6-1.8,11.3-3.6,16.9-5.4,1.3-.4,2.7-.7,4.4-1.1,1,5.1-.1,10,.5,15.1,1.7-.2,2.1-1.6,2.6-2.6a8,8,0,0,1,3.9-4l17.7-9.6c.7-.4,1.5-.6,2.4-1,1.1.9,2.3,1.7,3.3,2.6l63.5,56.4c2.9,2.5,5.8,5,8.5,7.4,3.6-1,13.7-6.3,17.3-9.1-.4-.8-.9-1.5-1.4-2.3l-11.1-13.2c-.9-1.1-1.7-2.2-2.7-3.6,1.2-1.5,2.3-2.9,3.5-4.2C651.3,95,667,76.9,682.8,58.8c12.6-14.5,25.2-28.9,37.8-43.4a26.9,26.9,0,0,1,8.5-6.8c4.3-2.1,8.5-4.4,12.8-6.6,1.4-.7,2.9-1.3,4.2-2,1.9.6,2.5,2.2,3.4,3.4,11.2,16.7,22.4,33.5,33.6,50.2,4.4,6.5,8.7,13,13.1,19.5.3.5.7,1.1.9,1.5-.4,1.6-1.8,1.9-2.9,2.5q-21.45,11.7-43.1,23.2c-7.3,3.9-14.6,7.9-21.9,11.9-.8.4-1.9.6-2,2,6.4.9,12.8,1.8,19.2,2.9a104.36,104.36,0,0,1,35.9,14.2c5.4,3.6,10.6,7.6,16,11.5,1-.1,1-1,1.2-1.7.9-5,1.7-10.1,2.5-15.1.4-2.5.9-5,1.2-7.6a4.41,4.41,0,0,1,2.6-3.7c5.9-3.2,11.8-6.5,17.6-9.8a11.25,11.25,0,0,1,6-1.3H886a14.51,14.51,0,0,0,7.6-2.1c6.1-3.7,12.6-6.9,19-10.3a9,9,0,0,1,4.6-.9h72.9c1.7,0,3.5.1,5.5.1.4,1.9.9,3.5,1.2,5.2,4,25.8,8.1,51.5,12.1,77.2,1.5,9.6,3.1,19.3,4.7,28.9.2,1.4.6,2.8.8,4.1,1.9.4,2.9-.8,4-1.6a104,104,0,0,1,29.1-13.4,100.28,100.28,0,0,1,25-3.9c1.3,0,2.6-.1,3.8-.2a3.13,3.13,0,0,0,1-.5c.7-4,.2-8.1.2-12.3s0-8-.1-12c0-4.2-.1-8.3-.1-12.5,0-4-.1-8-.1-12V124.8a38.66,38.66,0,0,1,3.7-2.4c5.3-2.9,10.8-5.7,16.1-8.6a7.6,7.6,0,0,1,5.9-.7c19.5,4.4,39,8.6,58.5,12.9,17,3.8,34,7.5,51.1,11.3,3.3.7,6.5,1.5,9.7,2.2,1.6,4.1,1.4,8.4,3,12.1,1.9.4,3-.6,4.3-1.3,3.1-1.6,6.2-3.3,9.3-5a7.91,7.91,0,0,1,6-.9c11,2.7,22.1,5.4,33.1,8,10.7,2.6,21.4,5.3,32.1,7.9s21.4,5.2,32.2,7.8c1.1.3,2.1.7,3.4,1.1a9.86,9.86,0,0,1-.3,2.4c-4.9,15-9.9,30.1-14.9,45.1q-9.6,29.1-19.4,58.3c-5.7,17.1-11.4,34.3-17.1,51.4L1278,374.7q-9.9,30-20,60.1c-3.5,10.6-7,21.3-10.6,31.9-.3,1.1-.7,2.1-1.1,3.2a4.9,4.9,0,0,1-2.5,2.8c-6.4,3.3-12.8,6.7-19.1,10.1-1.8,1-3.3.6-5.1,0-9-2.9-18-5.7-27-8.5l-42.9-13.8c-1.1-.3-2.1-.8-3.3-1.2a23.25,23.25,0,0,1-.4-3.7c-.2-7-.2-14.1-.4-21.1,0-1.6.2-3.2-.7-5-12-2-24.2-3.5-36.3-5.3s-24.3-3.2-36.7-5.5c.1-6.7,1.4-12.9,1.9-19.3s1.6-12.3,2-18.9c-4.1.5-7.2,2.5-10.6,3.5s-7.1,1.8-10.7,2.6-7.2,1.2-11,1.9a14.05,14.05,0,0,0,0,2.9c1,6.5,2,13,3,19.4.2,1.4.3,2.8.5,4.5-1.2.8-2.3,1.7-3.6,2.4-5.2,2.9-10.4,5.7-15.5,8.6a9.48,9.48,0,0,1-6.4,1.1c-14-2.5-28-5.1-42-7.5l-30.2-5.4-33-5.9c-.6-.1-1.2-.3-1.8-.4-1.5-1.2-1.4-2.9-1.6-4.5-.7-6-1.4-12.1-2.1-18.1-.2-1.9-.6-3.8-1-6a23.07,23.07,0,0,0-2.8,1c-4,2.1-7.9,4.3-11.8,6.4-.8.5-1.7.8-2.8,1.4-4.6-6.9-7.7-14.5-12.3-21.5a37,37,0,0,0-4,1.8c-4,2.1-7.9,4.2-11.8,6.5a8.9,8.9,0,0,1-6.4,1c-17.2-2.9-34.4-5.6-51.6-8.4L767,361.5l-2.7-.6c-.9-1.9-.4-3.7-.2-5.4,1.7-10.6,3.5-21.2,5.2-31.7C770.1,322.8,770.1,321.7,770.2,320.2ZM52,170.7c-.2,2.8,1.5,4.5,2.6,6.4q15.45,26.25,30.9,52.4c.8,1.3,1.3,3,3.3,3.7,3.8-1.9,7.7-3.9,11.8-5.8s8.1-4.4,12.2-5.9c.4.4.6.5.6.6,4.4,9.7,8.9,19.5,13.2,29.2,3.6,8,7.1,16.1,10.7,24.1,6.3,14.1,12.8,28.2,19.1,42.4,6.5,14.4,12.8,28.9,19.3,43.3s13.2,29.1,19.7,43.7c6.2,13.8,12.3,27.7,18.5,41.6a19.52,19.52,0,0,0,1.7,2.3c16.4-5.2,32.6-10.4,48.9-15.9-.2-1.1-.3-1.8-.5-2.6-4.5-17.6-9.1-35.2-13.6-52.8-2.8-10.8-5.8-21.6-8.6-32.4-2.3-8.8-4.6-17.6-6.8-26.4-.8-3.1-.5-3.7,2.3-5.4a186.73,186.73,0,0,0,26.9-20.7,169.32,169.32,0,0,0,23.1-26.2c11-15.4,19-32,21.7-51a70.81,70.81,0,0,0-.5-24.3c-2.8-13.1-9.2-24.4-18.2-34.2a95.26,95.26,0,0,0-20.1-16.2,90.48,90.48,0,0,0-34.6-13.4c-1.9-.3-3.8-.4-5.7-.7a144.69,144.69,0,0,0-27.1-2.6c-5.4-.1-10.9.3-16.3.7s-10.5.6-15.8,1.4a292.08,292.08,0,0,0-34.6,7.5,311.84,311.84,0,0,0-56.6,22.1c-7.5,3.8-14.9,8.1-22.3,12.1A28.42,28.42,0,0,0,52,170.7Zm1086.3-2.9c0,1.8.1,3.4,0,5-.2,2.4-.5,4.7-.7,7.1-.1,1.3-.2,2.5-.4,3.8-.6,5.1-1.1,10.1-1.7,15.2-.3,2.4-.4,4.8-.8,7.1a4.91,4.91,0,0,0,1.5,4.7,91.65,91.65,0,0,1,8.4,9.2c11.3,15.1,16.3,32.3,16.5,50.9a83.23,83.23,0,0,1-1.7,18,116,116,0,0,1-36.3,62.2,6.88,6.88,0,0,0-2.7,5.8c0,2.1-.1,4.1-.3,6.2-.1,1.7-.4,3.5-.6,5.2a23.81,23.81,0,0,1-.1,3.8c-1.5,4.8-.1,9.9-1.8,14.5a5.18,5.18,0,0,0,4,1.8,69.38,69.38,0,0,1,9,1.2,106.33,106.33,0,0,0,11.3,1.8,31.73,31.73,0,0,1,7.5,1.2c3.2,1.1,6.7.7,9.9,1.6a22.57,22.57,0,0,0,4.5.1,3.88,3.88,0,0,0,.6-1.1c.8-4.5,1.6-9.1,2.4-13.6l2.7-15c.8-4.4,1.5-8.8,2.2-13.2,1.2-6.7,2.5-13.4,3.7-20.2.8-4.4,1.4-8.8,2.1-13.2,1.6-9.2,3.3-18.5,5-27.7.7-3.7,1.6-7.4,2.4-11,.9,8.6,1.3,17.2,1.6,25.8.2,6.1,0,12.2,0,18.2,0,2.5.2,5.1.4,7.7.2,4.2.6,8.3.6,12.5.1,7.2,0,14.4,0,21.6,0,2.9.2,5.8.4,8.6.2,3.8.5,7.7.5,11.5.1,7.5,0,15,0,22.6,0,2.7.2,5.4.4,8.1.2,3.7.4,7.3.6,11,.1,1.3,0,2.5,0,3.6,6,2.6,38.4,12,42.2,12.3.2-.2.5-.4.6-.7q42.6-128.55,85-257.2a.9.9,0,0,0-.1-.5,2.6,2.6,0,0,0-.3-.7c-9.7-2.4-19.6-4.3-29.5-6.7-11.6-2.8-27-6.2-30.4-6.3-3.5,14.1-7,28.3-10.5,42.4-2.6,10.5-5.1,21-7.6,31.4l-8.4,35.7c-.2.7-.3,1.6-1.6,1.6a41,41,0,0,1-1.8-7.7c-2.5-11.6-5.1-23.3-7.6-34.9s-4.7-23.7-7.2-35.5q-3.9-18.9-8.1-37.8c-.5-2.2-1.1-4.3-1.5-6.5a3.6,3.6,0,0,0-3.2-3c-6.6-1.3-13.1-2.8-19.6-4.1-10-2-20-4-29.9-6l-24.3-4.8a11.11,11.11,0,0,0-2.6.1c-1.4,6.2-1.9,16.2-1.1,21.4Zm-575.1-53c-3.8,5.2-7.5,10.2-11.1,15.2s-7.2,10.1-10.8,15.2-7.3,10.1-10.9,15.2-7.1,10.2-10.8,15.2-6.8,10.3-11,15c-1.4-1-1.1-2.2-1.1-3.2-.3-4.5-.6-8.9-.8-13.4a173.37,173.37,0,0,0-1.3-19.1v-1.4c-.4-8.5-.7-16.9-1.2-25.4-.2-3.5-.5-7-.8-10.5a18.92,18.92,0,0,0-.5-2.3c-6.3,1.4-12.3,3.4-18.4,5.2s-12.5,3.6-18.8,5.5-12.2,3.6-18.3,5.5-12.5,3.4-18.6,5.8c0,6.6-.6,13,1.3,19.3a20.08,20.08,0,0,0,2.5-.1c4.5-1.2,8.9-2.4,13.4-3.7a6.69,6.69,0,0,1,4.2-.2,7.37,7.37,0,0,1,.4,1.4c.4,5.4.7,10.8,1.1,16.2.1,1,.3,1.9.4,2.8.2,1.6.4,3.1.5,4.7.4,5.7.8,11.5,1.1,17.2v.5c.6,5.4,1.3,10.8,1.8,16.2s.8,10.8,1,16.2a7,7,0,0,0,2.2,5.1,80.78,80.78,0,0,1,7.2,8.3,82,82,0,0,1,14.8,34.4l1.5,9.9a45.73,45.73,0,0,1,.5,5.2c.2,4.8-.5,9.5-1,14.3a104.64,104.64,0,0,1-5.7,24.6,101,101,0,0,1-7.9,17.4,5.89,5.89,0,0,0-1,4.1c.7,5.2,1.2,10.4,1.5,15.7.5,5.9.7,11.8,1.1,17.7a20.25,20.25,0,0,0,.9,3.3c5.2-.6,10-1.2,14.9-1.8,2.5-.3,5-.6,7.6-1,3.5-.5,6.9-1.2,10.3-1.6s7-.8,10.4-1.3a16,16,0,0,0,2.7-1.2v-74c0-6-.1-12.4,0-18.9,4.5,1,7.9,3.5,11.6,5.2s7.5,3.7,11.2,5.5,7.4,3.8,11.1,5.6,7.4,3.7,11.2,5.5,7.4,3.7,11.1,5.5,7.4,3.7,11.1,5.6l11.2,5.6,11.1,5.6,11.6,5.8c3.7,1.8,7.4,3.7,11.1,5.6l11.1,5.7c3.7,1.9,7.4,3.7,11.2,5.5s7.4,3.7,11.1,5.6l11.2,5.5c3.7,1.8,7.4,3.8,11.2,5.5s7.2,4.1,11.3,5.1a8.8,8.8,0,0,0,.5-1.5V328.8a15.52,15.52,0,0,0-.4-2.1c-3.2-.5-6.3-.8-9.4-1.4a119.85,119.85,0,0,1-26.3-8.2,101.65,101.65,0,0,1-43.2-36c-1.2-1.9-2.4-3.8-3.5-5.7a7.5,7.5,0,0,0-4-3.2c-10.4-4-20.8-8.2-31.2-12.3-11.1-4.4-22.3-8.8-33.4-13.2-1-.4-2.1-.8-2.2-2.5,1-1,2-2.2,3.1-3.4,3.9-4,7.9-7.9,11.8-12,8.8-9.3,17.4-18.7,26.2-28,7.8-8.3,15.7-16.4,23.5-24.7,2.7-2.8,5.3-5.6,7.8-8.5a13.77,13.77,0,0,0,1.4-2.4c-17.9-16.6-35.3-33.7-53.4-50.4ZM994.9,225.1c-.6-4.5-1.1-8.7-1.7-13-.8-5.2-1.8-10.4-2.6-15.5-1-6.1-1.9-12.3-2.8-18.4-.8-4.9-1.6-9.7-2.3-14.6-.6-3.9-1.2-7.9-1.8-11.8-.7-4.7-1.5-9.4-2.2-14.1-1.1-7.4-2.1-14.8-3.1-22.2,0-.2-.1-.3-.1-.5a2.47,2.47,0,0,0-1.9-1.9,12.1,12.1,0,0,0-1.9-.1h-35c-2.5,0-3.3.7-3.6,2.9-.8,4.7-1.5,9.4-2.3,14.1-1.5,8.4-3.2,16.8-4.7,25.2-1.2,6.5-2.1,13.2-3.2,19.7-1.2,7.3-2.6,14.7-3.9,22a14.73,14.73,0,0,1-.8,2.8c-.3.7.4,1.8-.9,2.3-.4-.9-.7-1.8-1-2.7-.8-4.2-1.6-8.4-2.4-12.7-1.6-8.5-3.1-16.9-4.6-25.4-.8-4.7-1.6-9.4-2.5-14.1-1-5.8-2.1-11.6-3.2-17.4a28,28,0,0,0-1.3-4.1H848.2a7.19,7.19,0,0,0-1.2,2.1c-.9,4.7-1.6,9.4-2.5,14.1-.5,3-1,6-1.5,8.9-.8,4.5-1.7,9.1-2.4,13.6-.9,5.5-1.8,11-2.8,16.4-.8,4.5-1.5,9.1-2.3,13.6-.6,3.4-1.1,6.9-1.7,10.3-.5,2.8-.8,5.6-1.3,8.5-.8,5-1.8,10-2.6,15-.7,4.1-1.2,8.2-1.8,12.3,3,2.7,5.9,5.2,8.7,7.7s5.8,5.3,8.8,8a20.28,20.28,0,0,1-1.3,1.8l-21.6,22.5a7.24,7.24,0,0,0-2.3,3.6c-1,6-2,11.9-3.1,17.9-.6,3.5-1.1,6.9-1.7,10.3-.7,4.2-1.5,8.4-2.1,12.7a11,11,0,0,0,.2,5.4c18.8,3.3,37.4,6.7,56.4,9.6a34.79,34.79,0,0,0,1.2-4.9c.5-3.1.8-6.3,1.3-9.5,1.2-7.2,2.5-14.4,3.7-21.6,1.2-7.4,2.1-14.8,3.2-22.2,1.3-8.3,2.6-16.7,4-25a7.84,7.84,0,0,1,1.1-1.8,17.61,17.61,0,0,1,1.4,2.3c6.2,13.3,12.3,26.6,18.5,39.9,4.3,9.1,8.6,18.2,13,27.2a14.37,14.37,0,0,0,1.8,2.5c.5-.8.9-1.6,1.3-2.4,2.9-7.6,5.8-15.2,8.8-22.8,3.6-9.2,7.1-18.5,10.7-27.7.4-1.1.5-2.6,2.3-2.8.7,3.8,1.5,7.5,2.1,11.2.7,4.2,1.2,8.5,1.9,12.7l1.2,7.5c.7,5.4,1.3,10.7,2.1,16.1s1.8,10.6,2.7,16c.4,2.7.8,5.3,1.2,8,.4,3.2.7,6.3,1.1,9.5.3,2.5.8,5,1.2,7.5.5,3.3,1.2,6.6,1.5,9.9A40.18,40.18,0,0,0,959,377l60.1,9a10.32,10.32,0,0,0,.4-3c-.6-3.8-1.3-7.5-1.9-10.9-4.4-2.5-8.5-4.7-12.5-7.1a75.8,75.8,0,0,1-18.9-16.8,81.2,81.2,0,0,1-15.3-29.6,89.93,89.93,0,0,1-3.4-19.2,91,91,0,0,1,1.8-23.3,108,108,0,0,1,10.6-29.6A142.09,142.09,0,0,1,994.9,225.1ZM717.1,249.6c25-27.3,50.2-53,74.3-79.9-1-1.3-2-2.6-3.1-3.8a122.7,122.7,0,0,0-9.9-9.1A83.34,83.34,0,0,0,752,142.6a84.44,84.44,0,0,0-24.4-4.2,116.29,116.29,0,0,0-24.3,1.4,114.65,114.65,0,0,0-28.6,9c-14.1,6.7-26.1,16-35.4,28.6a79.42,79.42,0,0,0-14,32.2c-.7,3.5-.7,7-1.1,10.5a54.76,54.76,0,0,0-.1,8.1c0,1.6.3,3.2.4,4.8a65.3,65.3,0,0,0,4.6,20.9,69.91,69.91,0,0,0,21.1,29.7,87.71,87.71,0,0,0,40.9,18.5c4.5.7,9.1,1.7,13.8,1.4,6-.3,12.1.4,18.1-1,3.4-.8,6.9-.9,10.4-1.6a155.2,155.2,0,0,0,21.2-6,149.35,149.35,0,0,0,30.3-14.2,154.89,154.89,0,0,0,18.4-13.8c1.4-1.3,2.8-2.6,4.1-4a21.11,21.11,0,0,0,3.9-4.4c-3.8-3.5-7.4-6.8-11.1-10.1L776,226.6c-.9-.8-2-1.5-3.2-2.4a49.92,49.92,0,0,0-6.6,6.4,58.59,58.59,0,0,1-23.4,15.2,84.16,84.16,0,0,1-21,4.2,14.48,14.48,0,0,1-4.7-.4ZM369.5,384.5c5.1,0,9.9.3,14.6-1,2.1-.6,4.4-.9,6.5-1.4A92.57,92.57,0,0,0,429,361.5a100.24,100.24,0,0,0,27-37.9,95.31,95.31,0,0,0,6.5-27.4c.7-8.2-.6-16.2-2.7-24.1A63.89,63.89,0,0,0,447.3,248a61.18,61.18,0,0,0-26.4-18.4,68.53,68.53,0,0,0-32-4.1,99.75,99.75,0,0,0-17.3,3.3c-19,5.6-34.3,16.8-47,31.7A94.42,94.42,0,0,0,308.1,289a91,91,0,0,0-5.2,24.2,68.39,68.39,0,0,0,2.9,25,63.72,63.72,0,0,0,28,36.9A63,63,0,0,0,369.5,384.5Zm619.1-89.6h.1c0,3.2-.5,6.5.1,9.6a95,95,0,0,0,4.3,15.6,61,61,0,0,0,19.5,25.6c9.7,7.7,21.2,11.5,33.5,12.7a67.18,67.18,0,0,0,20.5-1,100.29,100.29,0,0,0,18.6-5.8,86.32,86.32,0,0,0,23.4-14.7,96.41,96.41,0,0,0,29.2-43.7c2.2-6.9,2.7-14,3.7-21.1a7.08,7.08,0,0,0,0-2.9c-.9-4.1-.8-8.2-1.6-12.3a59.2,59.2,0,0,0-23.9-37.4c-9.9-7.3-21.3-10.8-33.4-11.7a76.59,76.59,0,0,0-26.5,2.8c-19.5,5.3-35.1,16.4-47.9,31.7a85.93,85.93,0,0,0-16,29.2,107.52,107.52,0,0,0-3.5,14.9C988.2,289,988.6,292,988.6,294.9ZM742.9,34c-18.6,21.9-36.6,43.8-54.6,65.5a20.38,20.38,0,0,0,2.9,5.2c2.1,3.1,2.3,3.2,5.8,1.5,3.9-1.9,7.7-3.9,11.5-5.8,19.4-9.7,38.8-19.3,58.2-29a15.86,15.86,0,0,0,2.7-1.8,7.22,7.22,0,0,0-.9-2c-8-10.9-16.1-21.8-24.2-32.7C744.1,34.6,743.7,34.4,742.9,34ZM601.1,215.9a14.17,14.17,0,0,0-1.8.8c-6.5,6.3-13,12.7-19.5,19a3.1,3.1,0,0,0-.6,1.3c3.6,2.1,19.1,8,23.3,8.9.5-3.4-.9-6.6-1-9.8s-.4-6.4-.5-9.5C601,223.1,601.1,219.8,601.1,215.9Z" transform="translate(0.4 0)"/><path class="cls-1" d="M225.5,287.7c-.7-.5-1.1-.6-1.2-.8-6.5-20.7-13.2-41.3-19.5-62-2.3-7.6-4.8-15.1-6.5-23,2.8-2.4,6-3.4,9-4.6a49.49,49.49,0,0,1,18.2-3.5c11.3,0,21.8,2.8,30.2,10.9a31.34,31.34,0,0,1,9.8,20.2,61.82,61.82,0,0,1,.2,12.9,47.51,47.51,0,0,1-8.9,22.9c-5.1,7.1-11.5,12.8-18.4,18A106.12,106.12,0,0,1,225.5,287.7Zm8.7-30.1c.6-.1,1,0,1.2-.2,5-4.2,8.8-9.2,10.5-15.7,1.1-4.1.9-8.2,1-12.4.2-7.5-4.1-12.4-10.5-15-3.9-1.5-7.8-1.6-11.8-1.5a12.82,12.82,0,0,0-2.7.5c.3,2,.4,3.8.7,5.5a41.82,41.82,0,0,0,1,5.1c3,9.8,6,19.5,9,29.3C233.1,254.8,233.7,256.3,234.2,257.6Z" transform="translate(0.4 0)"/><path class="cls-1" d="M685.4,249.9c-3.7-1.3-6.2-4-8.6-6.8a42,42,0,0,1-10.1-23.3c-1.1-12.1,1.9-23,10.2-32.3,5.7-6.3,12.2-11.2,20.5-13.4,16.1-4.3,30.2-.9,42.2,10.9a7.63,7.63,0,0,1,.8,1.1,1.88,1.88,0,0,1,.2.8c-.4,1.5-1.8,2.7-2.9,4-4.5,5-8.9,10-13.3,15-2.6,3-5.2,6-7.9,9-3.6,4-7.3,8-10.9,12.1-3.8,4.3-7.5,8.7-11.3,13C691.4,243.3,688.4,246.6,685.4,249.9Zm-.1-22.2a25.35,25.35,0,0,0,2.3-2.2c4.9-5.5,9.8-11,14.5-16.6,5-5.8,9.9-11.7,14.8-17.5a6.61,6.61,0,0,0,.5-1.5,5.56,5.56,0,0,0-1.7-.9,29.26,29.26,0,0,0-28.2,9.3c-6.7,7.6-7.4,19.8-2.2,29.4Z" transform="translate(0.4 0)"/><path class="cls-1" d="M393.3,244.1a66.27,66.27,0,0,0-5.9,3.1c-4.4,2.8-8.1,6.2-9.8,11.4-2,5.9-1.6,11.7,1.9,16.9a23.22,23.22,0,0,0,20.1,11c3.2,0,6.4.2,9.4-1.1,7.2-2.9,12.6-7.4,14.9-15.1a23.76,23.76,0,0,0,.6-3.7c.1-1.4.1-2.8.2-4.5.7.4,1.3.5,1.4.8a33.08,33.08,0,0,1,4.3,17.4,36.78,36.78,0,0,1-9.5,23.4c-6,6.8-13.5,10.5-22.1,12.4a18.41,18.41,0,0,1-3.3.3h-7.7c-13.9.2-31.5-10-35.5-27.6-2.4-10.5-1.7-20.7,5.2-29.7a40.73,40.73,0,0,1,21.9-14.7C384,243.2,388.6,243.5,393.3,244.1Z" transform="translate(0.4 0)"/><path class="cls-1" d="M1074.2,224.2a24.37,24.37,0,0,1-2.8,1.4,22.91,22.91,0,0,0-13.5,10.7c-3.5,6.1-3.3,12.6,0,18.7s8.6,9.5,15.2,11.4a24.81,24.81,0,0,0,20.2-2.9c4.5-2.7,8-6.4,9.5-11.6a32.1,32.1,0,0,0,.9-6.1,27.13,27.13,0,0,0,0-2.9,18.58,18.58,0,0,1,4.6,10.5,36.49,36.49,0,0,1-.7,16.1,37.54,37.54,0,0,1-18.8,23,42.24,42.24,0,0,1-44-3.2,36.25,36.25,0,0,1-15-24.1,32.72,32.72,0,0,1,5.6-25c6.1-8.6,14.5-13.6,24.7-16C1064.7,223.1,1069.2,223.6,1074.2,224.2Z" transform="translate(0.4 0)"/><path class="cls-1" d="M1270.9,450.1v13h-5v-13h-3.6V446h12.1v4.1Z" transform="translate(0.4 0)"/><path class="cls-1" d="M1294.6,446v17.1h-4.9V450.9l-3.2,12.2h-3.3l-3.3-12.2v12.2H1276V446h6.9l2.5,9.1,2.4-9.1Z" transform="translate(0.4 0)"/></svg>